<svg xmlns="http://www.w3.org/2000/svg" width="128" height="128" fill-rule="evenodd" clip-rule="evenodd" image-rendering="optimizeQuality" shape-rendering="geometricPrecision" text-rendering="geometricPrecision" viewBox="0 0 1333.33 1333.33" id="adidas">
  <polygon points="910.83 548.69 1038.36 761.17 910.83 761.17 833.49 761.17 711.72 558.16 619.46 404.55 711.72 349.1 769.8 314.15"></polygon>
  <polygon points="711.72 677.59 761.73 761.17 711.72 761.17 557 761.17 443.33 571.99 438.36 563.75 443.33 560.81 588.86 473.19"></polygon>
  <polygon points="443.33 691.26 485.26 761.17 443.33 761.17 280.39 761.17 257.4 722.8 407.9 632.41"></polygon>
  <path d="M1177.68 890.45l-29.67 0 -15.37 0c-1.4,-7.47 -3.57,-12.73 -6.54,-15.69 -4.81,-4.81 -13.04,-7.3 -24.38,-7.3 -11.87,0 -28.27,1.79 -28.27,17.08 0,6.82 9.49,12.27 28.27,16.47 9.41,2.04 17.65,3.97 24.73,5.76 18.94,4.79 40.26,10.06 50.91,28.33 3.63,6.23 5.44,13.35 5.44,21.37 0,22.36 -9.32,38.67 -27.81,48.92 -2.33,1.25 -4.5,2.33 -6.99,3.43 -11.95,5.13 -25.93,7.76 -41.62,7.76 -23.46,0 -42.41,-4.19 -56.85,-12.43 -9.08,-5.28 -15.87,-11.92 -20.39,-19.92 -4.53,-8 -6.79,-17.34 -6.79,-28.07l47.21 0c0,8.08 2.96,14.45 8.7,18.79 5.76,4.52 15.54,6.85 29.35,6.85 10.41,0 18.17,-2.19 23.3,-6.53 4.05,-3.43 5.91,-7.16 5.91,-11.5 0,-7.3 -9.3,-13.04 -27.81,-17.08 -27.64,-5.9 -45.04,-10.72 -52.18,-14.14 -18.94,-8.85 -28.26,-22.51 -28.26,-41.48 0,-15.2 4.81,-28.1 14.75,-38.66 12.43,-13.2 31.07,-19.74 55.76,-19.74 20.34,0 36.66,2.96 48.93,8.7 1.07,0.46 2.02,0.94 2.95,1.56 8.85,4.8 15.52,11.18 20,19.11 4.47,7.91 6.71,17.39 6.71,28.41zm-216.68 46.13l0 -19.25c-4.5,-23.31 -25.16,-41.02 -49.7,-41.02 -0.17,0 -0.31,0 -0.48,0 -27.79,0.17 -50.32,22.85 -50.32,50.63 0,27.81 22.53,50.49 50.32,50.8 0.17,0 0.31,0 0.48,0 24.54,0 45.19,-17.85 49.7,-41.16zm42.41 -9.64l0 87.14 -42.41 0 0 -9.63c-14.29,9.32 -31.39,14.77 -49.7,14.77 -0.17,0 -0.31,0 -0.48,0 -50.63,-0.31 -91.79,-41.65 -91.79,-92.28 0,-50.63 41.16,-91.93 91.79,-92.25 0.17,0 0.31,0 0.48,0 18.32,0 35.41,5.44 49.7,14.75l0 -10.09 42.41 0 0 87.59zm-241.52 9.64l0 -19.25c-4.51,-23.31 -25.18,-41.02 -49.72,-41.02 -0.14,0 -0.31,0 -0.46,0 -27.81,0.17 -50.33,22.85 -50.33,50.63 0,27.81 22.52,50.49 50.33,50.8 0.15,0 0.31,0 0.46,0 24.54,0 45.21,-17.85 49.72,-41.16zm42.39 -9.64l0 87.14 -42.39 0 0 -9.63c-14.45,9.32 -31.38,14.77 -49.72,14.77 -0.14,0 -0.31,0 -0.46,0 -50.63,-0.31 -91.8,-41.65 -91.8,-92.28 0,-50.63 41.17,-91.93 91.8,-92.25 0.15,0 0.31,0 0.46,0 18.34,0 35.26,5.44 49.72,14.75l0 -70.04 42.39 0 0 147.54zm-247.12 -92.25l46.13 0 0 179.39 -46.13 0 0 -179.39zm0 -54.37l46.13 0 0 40.54 -46.13 0 0 -40.54zm-63.52 156.26l0 -19.25c-4.51,-23.31 -25.16,-41.02 -49.87,-41.02 -0.15,0 -0.31,0 -0.46,0 -27.81,0.17 -50.32,22.85 -50.32,50.63 0,27.81 22.51,50.49 50.32,50.8 0.15,0 0.31,0 0.46,0 24.7,0 45.36,-17.85 49.87,-41.16zm42.39 -9.64l0 87.14 -42.39 0 0 -9.63c-14.44,9.32 -31.53,14.77 -49.87,14.77 -0.15,0 -0.31,0 -0.46,0 -50.63,-0.31 -91.8,-41.65 -91.8,-92.28 0,-50.63 41.16,-91.93 91.8,-92.25 0.15,0 0.31,0 0.46,0 18.34,0 35.43,5.44 49.86,14.75l0.01 -70.04 42.39 0 0 147.54zm-243.53 9.64l0 -19.25c-4.5,-23.31 -25.16,-41.02 -49.86,-41.02 -0.17,0 -0.31,0 -0.48,0 -27.64,0.17 -50.15,22.85 -50.15,50.63 0,27.81 22.51,50.49 50.15,50.8 0.17,0 0.31,0 0.48,0 24.7,0 45.36,-17.85 49.86,-41.16zm42.4 -9.64l0 87.14 -42.4 0 0 -9.63c-14.45,9.32 -31.54,14.77 -49.86,14.77 -0.17,0 -0.31,0 -0.48,0 -50.47,-0.31 -91.63,-41.65 -91.63,-92.28 0,-50.63 41.16,-91.93 91.63,-92.25 0.17,0 0.31,0 0.48,0 18.32,0 35.41,5.44 49.86,14.75l0 -10.09 42.4 0 0 87.59z"></path>
</svg>
