<?xml version="1.0" encoding="utf-8"?>
<!-- Generator: Adobe Illustrator 25.2.0, SVG Export Plug-In . SVG Version: 6.00 Build 0)  -->
<svg version="1.1" id="Layer_1" xmlns="http://www.w3.org/2000/svg" xmlns:xlink="http://www.w3.org/1999/xlink" x="0px" y="0px"
	 viewBox="0 0 3240 3240" style="enable-background:new 0 0 3240 3240;" xml:space="preserve">
<style type="text/css">
	.st0{fill:#FFFFFF;}
</style>
<g>
	<g>
		
			<text transform="matrix(-1 7.820000e-03 -7.820000e-03 -1 3210.1387 -384.8962)" style="fill:#606060; font-family:'Bestigia-Regular'; font-size:306.4803px;">n</text>
	</g>
	<g>
		
			<text transform="matrix(-7.820000e-03 -1 1 -7.820000e-03 3106.8708 -329.333)" style="fill:#606060; font-family:'Bestigia-Regular'; font-size:306.4803px;">n</text>
	</g>
	<g>
		
			<text transform="matrix(1 -7.820000e-03 7.820000e-03 1 3051.3086 -432.6019)" style="fill:#606060; font-family:'Bestigia-Regular'; font-size:306.4803px;">n</text>
	</g>
	<g>
		
			<text transform="matrix(7.820000e-03 1 -1 7.820000e-03 3154.5796 -488.1642)" style="fill:#606060; font-family:'Bestigia-Regular'; font-size:306.4803px;">n</text>
	</g>
</g>
<g>
	<g>
		<g>
			<path class="st0" d="M2657.36,1764.31c-5.25-39.42-17.24-71.92-35.87-97.65c-28.7-42.92-74.51-77.64-137.56-104.23
				c-80.35-36.35-192.66-63.17-336.85-80.54c-13.62-2.35-35.14-4.64-64.74-6.87l556.09-4.34l-1.99-253.12l-619.57,4.88l-2.89-370.12
				c-0.48-57.87-13.8-112-40.09-162.28c-26.22-50.27-64.08-83.85-113.45-100.73c-24.78-9.64-56.79-11.88-96.15-6.63
				c-39.36,5.24-71.91,17.18-97.65,35.87c-42.86,28.63-77.64,74.51-104.23,137.5c-36.35,80.35-63.17,192.66-80.47,336.91
				c-2.41,13.56-4.7,35.14-6.93,64.68l-4.34-556.03l-253.06,1.93l4.82,619.57L852.31,1226c-57.87,0.48-111.94,13.8-162.28,40.09
				c-50.27,26.22-83.85,64.08-100.73,113.51c-9.65,24.72-11.88,56.72-6.63,96.09c5.25,39.42,17.18,71.92,35.87,97.66
				c28.69,42.92,74.51,77.64,137.5,104.23c80.42,36.35,192.66,63.17,336.91,80.54c13.56,2.35,35.14,4.64,64.68,6.87l-556.03,4.34
				l1.99,253.12l619.5-4.88l2.89,370.12c0.48,57.87,13.8,111.94,40.09,162.28c26.28,50.27,64.08,83.85,113.51,100.73
				c24.71,9.64,56.72,11.88,96.09,6.63c39.42-5.24,71.91-17.18,97.65-35.87c42.92-28.69,77.64-74.51,104.23-137.5
				c36.35-80.41,63.17-192.66,80.53-336.91c2.35-13.56,4.64-35.14,6.87-64.74l4.34,556.09l253.12-1.99l-4.82-619.51l370.12-2.89
				c57.87-0.48,111.94-13.8,162.28-40.09c50.27-26.28,83.85-64.08,100.73-113.51C2660.37,1835.68,2662.54,1803.68,2657.36,1764.31z
				 M2555.18,1696.74c-2.29,19.71-13.86,35.2-34.72,46.48c-20.86,11.21-44.18,16.94-70.11,17.18l-136.66,1.02l-545,4.28v0.66
				l-6.21,0.06c0.12,17.24-2.11,44.37-6.75,81.32c-3.32,48.1-9.59,112.18-18.81,192.3c-13.98,103.56-26.34,180.66-37.01,231.24
				c-16.58,86.32-34.54,151.12-53.89,194.41c-27.85,63.05-62.09,92.89-102.78,89.52c-19.71-2.35-35.2-13.92-46.48-34.78
				c-11.21-20.86-16.94-44.19-17.18-70.05l-1.02-136.72l-4.28-545h-0.66l-0.06-6.15c-17.24,0.12-44.37-2.11-81.32-6.75
				c-48.1-3.32-112.12-9.58-192.3-18.87c-103.56-13.92-180.66-26.28-231.24-36.95c-86.32-16.58-151.12-34.54-194.41-53.89
				c-63.05-27.85-92.89-62.09-89.52-102.78c2.35-19.71,13.93-35.2,34.78-46.48c20.86-11.21,44.19-16.94,70.05-17.18l136.72-1.02
				l545-4.28v-0.66l6.15-0.06c-0.12-17.24,2.11-44.37,6.75-81.32c3.38-48.1,9.59-112.18,18.87-192.3
				c13.93-103.62,26.28-180.66,36.95-231.24c16.58-86.32,34.54-151.12,53.89-194.41c27.85-63.05,62.15-92.89,102.78-89.52
				c19.71,2.35,35.2,13.92,46.48,34.72c11.27,20.92,16.94,44.25,17.18,70.11l1.08,136.72l4.22,545h0.66l0.06,6.15
				c17.24-0.12,44.37,2.11,81.38,6.75c48.04,3.32,112.12,9.58,192.3,18.81c103.56,13.99,180.6,26.34,231.24,37.01
				c86.32,16.58,151.12,34.54,194.41,53.89C2528.72,1621.81,2558.56,1656.05,2555.18,1696.74z"/>
		</g>
	</g>
</g>
</svg>
